# xmcd CD database file
#
# Track frame offsets:
#	183
#	40158
#	81408
#	94258
#	121533
#	152533
#	171483
#	213288
#	239920
#	269388
#
# Disc length: 3976 seconds
#
# Revision: 0
# Processed by: cddbd v1.5.2PL0 Copyright (c) Steve Scherf et al.
# Submitted via: CDex 1.50
#
DISCID=860f860a
DTITLE=Gil Cuppini - What's New
DYEAR=1961
DGENRE=Jazz
TTITLE0=Vinnie's Components
TTITLE1=Hatch-Tag-Blues
TTITLE2=Blue Daniel
TTITLE3=I Love You
TTITLE4=What's New
TTITLE5=What Is This Thing Called Love
TTITLE6=John's Ballad
TTITLE7=Blue Waltz
TTITLE8=Confirmation
TTITLE9=Solar
EXTD=YEAR: 1961
EXTT0=
EXTT1=
EXTT2=
EXTT3=
EXTT4=
EXTT5=
EXTT6=
EXTT7=
EXTT8=
EXTT9=
PLAYORDER=
